<svg width="180" height="180" viewBox="0 0 180 180" fill="none" xmlns="http://www.w3.org/2000/svg">
<circle cx="90" cy="90" r="90" fill="#282828"/>
<path d="M150 90C150 123.137 123.137 150 90 150C56.8629 150 30 123.137 30 90C30 56.8629 56.8629 30 90 30C123.137 30 150 56.8629 150 90Z" fill="#355E83"/>
<g filter="url(#filter0_d_1701_44)">
<path d="M28.4287 67.7145C23.6541 90.4758 34.6693 105.283 48.0263 113.478C37.9219 111.104 28.1457 107.556 18 102.279C25.7931 125.831 42.8049 131.402 57.7007 129.862C49.4697 134.194 40.7723 137.553 32.0486 139.827C53.2721 152.94 68.7556 144.829 77.3616 133.347C76.7323 132.786 76.0989 132.229 75.4616 131.676C73.8746 130.552 72.3664 129.26 70.9453 127.813C69.1214 126.264 67.2642 124.684 65.3914 123.032C55.1082 113.963 44.6166 103.088 44.1728 88.7366C44.1722 88.7214 44.1728 88.7062 44.1722 88.691C38.3207 81.9867 33.026 74.9207 28.429 67.7142L28.4287 67.7145ZM151.572 67.7145C146.975 74.9198 141.68 81.983 135.828 88.6852C135.828 88.6931 135.829 88.7004 135.829 88.7089C136.253 102.681 125.599 113.834 115.058 123.173C110.819 126.928 106.543 130.414 102.862 133.641C111.511 144.967 126.909 152.828 147.952 139.827C139.229 137.553 130.539 134.194 122.308 129.863C137.203 131.4 154.208 125.827 162 102.279C151.855 107.557 142.078 111.105 131.974 113.478C145.33 105.283 156.346 90.4767 151.571 67.7151L151.572 67.7145Z" fill="white"/>
<circle cx="89.9991" cy="90.3429" r="36.3429" fill="white"/>
</g>
<defs>
<filter id="filter0_d_1701_44" x="14" y="51" width="152" height="100.571" filterUnits="userSpaceOnUse" color-interpolation-filters="sRGB">
<feFlood flood-opacity="0" result="BackgroundImageFix"/>
<feColorMatrix in="SourceAlpha" type="matrix" values="0 0 0 0 0 0 0 0 0 0 0 0 0 0 0 0 0 0 127 0" result="hardAlpha"/>
<feOffset dy="1"/>
<feGaussianBlur stdDeviation="2"/>
<feComposite in2="hardAlpha" operator="out"/>
<feColorMatrix type="matrix" values="0 0 0 0 0 0 0 0 0 0 0 0 0 0 0 0 0 0 0.15 0"/>
<feBlend mode="normal" in2="BackgroundImageFix" result="effect1_dropShadow_1701_44"/>
<feBlend mode="normal" in="SourceGraphic" in2="effect1_dropShadow_1701_44" result="shape"/>
</filter>
</defs>
</svg>
